<svg xmlns="http://www.w3.org/2000/svg" width="20" height="20" fill="none" viewBox="0 0 20 20"><g id="Icons/Basic/Hide"><path id="hide" fill="#3F434A" d="M2.29243 6.35573C2.61993 6.10385 3.08925 6.16435 3.34223 6.49049L3.34478 6.49369C3.34816 6.49791 3.35472 6.50601 3.36448 6.51767C3.38399 6.54101 3.41624 6.57857 3.46135 6.62785C3.55162 6.72647 3.69298 6.87161 3.88633 7.04352C4.27335 7.38762 4.86585 7.83646 5.67161 8.23523C6.72929 8.75867 8.16282 9.20023 9.99966 9.20023C11.8365 9.20023 13.27 8.75867 14.3277 8.23523C15.1335 7.83646 15.726 7.38762 16.113 7.04352C16.3063 6.87161 16.4477 6.72647 16.538 6.62785C16.5831 6.57857 16.6153 6.54101 16.6349 6.51767C16.6446 6.50601 16.6512 6.49791 16.6545 6.49369L16.6568 6.49088C16.9098 6.16473 17.3794 6.10384 17.7069 6.35573C18.0352 6.60825 18.0967 7.07913 17.8442 7.40746L17.8429 7.40912L17.8413 7.41117L17.8372 7.41646L17.8251 7.4317C17.8153 7.44389 17.8021 7.46007 17.7855 7.47993C17.7523 7.51965 17.7053 7.5741 17.6444 7.64063C17.5227 7.77365 17.3449 7.9554 17.1097 8.16451C16.758 8.4772 16.2764 8.85245 15.6607 9.21735L16.8819 11.6092C17.0703 11.9781 16.9239 12.4298 16.555 12.6182C16.1861 12.8066 15.7343 12.6602 15.546 12.2913L14.317 9.88428C13.3369 10.2844 12.1493 10.5949 10.7497 10.6781V12.9502C10.7497 13.3644 10.4139 13.7002 9.99966 13.7002C9.58545 13.7002 9.24966 13.3644 9.24966 12.9502V10.6781C7.85001 10.5949 6.66248 10.2844 5.68229 9.88428L4.45335 12.2913C4.265 12.6602 3.81324 12.8066 3.44433 12.6182C3.07542 12.4298 2.92905 11.9781 3.11741 11.6092L4.33861 9.21735C3.72289 8.85245 3.24133 8.4772 2.88965 8.16451C2.65445 7.9554 2.47664 7.77365 2.35489 7.64063C2.29398 7.5741 2.24701 7.51965 2.2138 7.47993C2.19719 7.46007 2.18402 7.44389 2.17425 7.4317L2.16216 7.41646L2.15802 7.41117L2.15643 7.40912L2.15575 7.40824C1.90323 7.0799 1.96409 6.60825 2.29243 6.35573Z"/></g></svg>