<svg xmlns="http://www.w3.org/2000/svg" width="190" height="48" fill="none" viewBox="0 0 190 48"><g filter="url(#filter0_d_20_909)"><path fill="#1864AB" d="M57.7266 29H54.0469L54.0703 26.4688H57.7266C58.7188 26.4688 59.5508 26.25 60.2227 25.8125C60.8945 25.3672 61.4023 24.7305 61.7461 23.9023C62.0898 23.0664 62.2617 22.0664 62.2617 20.9023V20.0234C62.2617 19.125 62.1641 18.332 61.9688 17.6445C61.7734 16.957 61.4844 16.3789 61.1016 15.9102C60.7266 15.4414 60.2617 15.0859 59.707 14.8438C59.1523 14.6016 58.5156 14.4805 57.7969 14.4805H53.9766V11.9375H57.7969C58.9375 11.9375 59.9766 12.1289 60.9141 12.5117C61.8594 12.8945 62.6758 13.4453 63.3633 14.1641C64.0586 14.875 64.5898 15.7266 64.957 16.7188C65.332 17.7109 65.5195 18.8203 65.5195 20.0469V20.9023C65.5195 22.1211 65.332 23.2305 64.957 24.2305C64.5898 25.2227 64.0586 26.0742 63.3633 26.7852C62.6758 27.4961 61.8555 28.043 60.9023 28.4258C59.9492 28.8086 58.8906 29 57.7266 29ZM55.8516 11.9375V29H52.6289V11.9375H55.8516ZM71.3086 16.3203V29H68.2031V16.3203H71.3086ZM67.9922 13.0039C67.9922 12.543 68.1484 12.1602 68.4609 11.8555C68.7812 11.5508 69.2109 11.3984 69.75 11.3984C70.2891 11.3984 70.7148 11.5508 71.0273 11.8555C71.3477 12.1602 71.5078 12.543 71.5078 13.0039C71.5078 13.457 71.3477 13.8359 71.0273 14.1406C70.7148 14.4453 70.2891 14.5977 69.75 14.5977C69.2109 14.5977 68.7812 14.4453 68.4609 14.1406C68.1484 13.8359 67.9922 13.457 67.9922 13.0039ZM81.2461 26.3047V20.457C81.2461 20.0273 81.1719 19.6562 81.0234 19.3438C80.875 19.0312 80.6484 18.7891 80.3438 18.6172C80.0391 18.4453 79.6523 18.3594 79.1836 18.3594C78.7695 18.3594 78.4062 18.4297 78.0938 18.5703C77.7891 18.7109 77.5547 18.9102 77.3906 19.168C77.2266 19.418 77.1445 19.707 77.1445 20.0352H74.0391C74.0391 19.5117 74.1641 19.0156 74.4141 18.5469C74.6641 18.0703 75.0195 17.6484 75.4805 17.2812C75.9492 16.9062 76.5078 16.6133 77.1562 16.4023C77.8125 16.1914 78.5469 16.0859 79.3594 16.0859C80.3203 16.0859 81.1758 16.25 81.9258 16.5781C82.6836 16.8984 83.2773 17.3828 83.707 18.0312C84.1445 18.6797 84.3633 19.4961 84.3633 20.4805V26.0117C84.3633 26.6445 84.4023 27.1875 84.4805 27.6406C84.5664 28.0859 84.6914 28.4727 84.8555 28.8008V29H81.7031C81.5547 28.6797 81.4414 28.2734 81.3633 27.7812C81.2852 27.2812 81.2461 26.7891 81.2461 26.3047ZM81.6797 21.2773L81.7031 23.1172H79.7461C79.2617 23.1172 78.8359 23.168 78.4688 23.2695C78.1016 23.3633 77.8008 23.5039 77.5664 23.6914C77.332 23.8711 77.1562 24.0898 77.0391 24.3477C76.9219 24.5977 76.8633 24.8828 76.8633 25.2031C76.8633 25.5156 76.9336 25.7969 77.0742 26.0469C77.2227 26.2969 77.4336 26.4961 77.707 26.6445C77.9883 26.7852 78.3164 26.8555 78.6914 26.8555C79.2383 26.8555 79.7148 26.7461 80.1211 26.5273C80.5273 26.3008 80.8438 26.0273 81.0703 25.707C81.2969 25.3867 81.418 25.082 81.4336 24.793L82.3242 26.1289C82.2148 26.4492 82.0508 26.7891 81.832 27.1484C81.6133 27.5078 81.332 27.8438 80.9883 28.1562C80.6445 28.4688 80.2305 28.7266 79.7461 28.9297C79.2617 29.1328 78.6992 29.2344 78.0586 29.2344C77.2383 29.2344 76.5039 29.0703 75.8555 28.7422C75.207 28.4141 74.6953 27.9648 74.3203 27.3945C73.9453 26.8242 73.7578 26.1758 73.7578 25.4492C73.7578 24.7773 73.8828 24.1836 74.1328 23.668C74.3828 23.1523 74.7539 22.7188 75.2461 22.3672C75.7383 22.0078 76.3477 21.7383 77.0742 21.5586C77.8086 21.3711 78.6484 21.2773 79.5938 21.2773H81.6797ZM95.2148 16.3203H98.0273V28.6133C98.0273 29.7617 97.7773 30.7344 97.2773 31.5312C96.7852 32.3359 96.0938 32.9453 95.2031 33.3594C94.3125 33.7812 93.2773 33.9922 92.0977 33.9922C91.5898 33.9922 91.0391 33.9219 90.4453 33.7812C89.8594 33.6406 89.293 33.418 88.7461 33.1133C88.207 32.8164 87.7578 32.4297 87.3984 31.9531L88.793 30.125C89.2148 30.6172 89.6914 30.9883 90.2227 31.2383C90.7539 31.4961 91.3281 31.625 91.9453 31.625C92.5703 31.625 93.1016 31.5078 93.5391 31.2734C93.9844 31.0469 94.3242 30.7109 94.5586 30.2656C94.8008 29.8281 94.9219 29.2891 94.9219 28.6484V19.2148L95.2148 16.3203ZM86.6484 22.8125V22.5664C86.6484 21.5977 86.7656 20.7188 87 19.9297C87.2344 19.1328 87.5703 18.4492 88.0078 17.8789C88.4531 17.3086 88.9883 16.8672 89.6133 16.5547C90.2461 16.2422 90.957 16.0859 91.7461 16.0859C92.582 16.0859 93.2852 16.2383 93.8555 16.543C94.4336 16.8477 94.9102 17.2812 95.2852 17.8438C95.668 18.4062 95.9648 19.0742 96.1758 19.8477C96.3945 20.6133 96.5625 21.457 96.6797 22.3789V23.0469C96.5703 23.9453 96.3945 24.7695 96.1523 25.5195C95.918 26.2695 95.6055 26.9258 95.2148 27.4883C94.8242 28.043 94.3398 28.4727 93.7617 28.7773C93.1836 29.082 92.5039 29.2344 91.7227 29.2344C90.9414 29.2344 90.2383 29.0742 89.6133 28.7539C88.9883 28.4336 88.4531 27.9844 88.0078 27.4062C87.5703 26.8281 87.2344 26.1484 87 25.3672C86.7656 24.5859 86.6484 23.7344 86.6484 22.8125ZM89.7422 22.5664V22.8125C89.7422 23.3594 89.7969 23.8711 89.9062 24.3477C90.0156 24.8242 90.1836 25.2461 90.4102 25.6133C90.6367 25.9727 90.9219 26.2539 91.2656 26.457C91.6094 26.6602 92.0195 26.7617 92.4961 26.7617C93.1367 26.7617 93.6602 26.6289 94.0664 26.3633C94.4805 26.0898 94.793 25.7188 95.0039 25.25C95.2227 24.7734 95.3633 24.2383 95.4258 23.6445V21.8047C95.3867 21.3359 95.3008 20.9023 95.168 20.5039C95.043 20.1055 94.8672 19.7617 94.6406 19.4727C94.4141 19.1836 94.125 18.957 93.7734 18.793C93.4219 18.6289 93.0039 18.5469 92.5195 18.5469C92.0508 18.5469 91.6406 18.6523 91.2891 18.8633C90.9375 19.0664 90.6484 19.3516 90.4219 19.7188C90.1953 20.0859 90.0234 20.5117 89.9062 20.9961C89.7969 21.4805 89.7422 22.0039 89.7422 22.5664ZM100.266 22.7891V22.543C100.266 21.6133 100.398 20.7578 100.664 19.9766C100.93 19.1875 101.316 18.5039 101.824 17.9258C102.332 17.3477 102.953 16.8984 103.688 16.5781C104.422 16.25 105.258 16.0859 106.195 16.0859C107.148 16.0859 107.992 16.25 108.727 16.5781C109.469 16.8984 110.094 17.3477 110.602 17.9258C111.109 18.5039 111.496 19.1875 111.762 19.9766C112.027 20.7578 112.16 21.6133 112.16 22.543V22.7891C112.16 23.7109 112.027 24.5664 111.762 25.3555C111.496 26.1367 111.109 26.8203 110.602 27.4062C110.094 27.9844 109.473 28.4336 108.738 28.7539C108.004 29.0742 107.164 29.2344 106.219 29.2344C105.281 29.2344 104.441 29.0742 103.699 28.7539C102.957 28.4336 102.332 27.9844 101.824 27.4062C101.316 26.8203 100.93 26.1367 100.664 25.3555C100.398 24.5664 100.266 23.7109 100.266 22.7891ZM103.359 22.543V22.7891C103.359 23.3438 103.414 23.8633 103.523 24.3477C103.633 24.832 103.801 25.2578 104.027 25.625C104.254 25.9922 104.547 26.2812 104.906 26.4922C105.273 26.6953 105.711 26.7969 106.219 26.7969C106.719 26.7969 107.148 26.6953 107.508 26.4922C107.867 26.2812 108.16 25.9922 108.387 25.625C108.621 25.2578 108.793 24.832 108.902 24.3477C109.012 23.8633 109.066 23.3438 109.066 22.7891V22.543C109.066 21.9961 109.012 21.4844 108.902 21.0078C108.793 20.5234 108.621 20.0977 108.387 19.7305C108.16 19.3555 107.863 19.0625 107.496 18.8516C107.137 18.6328 106.703 18.5234 106.195 18.5234C105.695 18.5234 105.266 18.6328 104.906 18.8516C104.547 19.0625 104.254 19.3555 104.027 19.7305C103.801 20.0977 103.633 20.5234 103.523 21.0078C103.414 21.4844 103.359 21.9961 103.359 22.543ZM117.445 19.0273V29H114.352V16.3203H117.258L117.445 19.0273ZM116.953 22.2031H116.039C116.047 21.2812 116.172 20.4453 116.414 19.6953C116.656 18.9453 116.996 18.3008 117.434 17.7617C117.879 17.2227 118.406 16.8086 119.016 16.5195C119.625 16.2305 120.305 16.0859 121.055 16.0859C121.664 16.0859 122.215 16.1719 122.707 16.3438C123.199 16.5156 123.621 16.7891 123.973 17.1641C124.332 17.5391 124.605 18.0312 124.793 18.6406C124.988 19.2422 125.086 19.9844 125.086 20.8672V29H121.969V20.8438C121.969 20.2656 121.883 19.8086 121.711 19.4727C121.547 19.1367 121.305 18.8984 120.984 18.7578C120.672 18.6172 120.285 18.5469 119.824 18.5469C119.348 18.5469 118.93 18.6445 118.57 18.8398C118.219 19.0273 117.922 19.2891 117.68 19.625C117.445 19.9609 117.266 20.3477 117.141 20.7852C117.016 21.2227 116.953 21.6953 116.953 22.2031ZM140.812 14.5273L135.949 29H132.539L138.914 11.9375H141.094L140.812 14.5273ZM144.879 29L139.992 14.5273L139.699 11.9375H141.891L148.301 29H144.879ZM144.656 22.6602V25.2031H135.504V22.6602H144.656ZM153.105 11V29H150V11H153.105ZM159.34 11V29H156.234V11H159.34ZM167.988 29.2344C167.027 29.2344 166.164 29.0781 165.398 28.7656C164.633 28.4531 163.98 28.0195 163.441 27.4648C162.91 26.9023 162.5 26.25 162.211 25.5078C161.93 24.7578 161.789 23.9531 161.789 23.0938V22.625C161.789 21.6484 161.93 20.7617 162.211 19.9648C162.492 19.1602 162.891 18.4688 163.406 17.8906C163.922 17.3125 164.539 16.8672 165.258 16.5547C165.977 16.2422 166.77 16.0859 167.637 16.0859C168.535 16.0859 169.328 16.2383 170.016 16.543C170.703 16.8398 171.277 17.2617 171.738 17.8086C172.199 18.3555 172.547 19.0117 172.781 19.7773C173.016 20.5352 173.133 21.375 173.133 22.2969V23.5977H163.195V21.4648H170.086V21.2305C170.07 20.7383 169.977 20.2891 169.805 19.8828C169.633 19.4688 169.367 19.1406 169.008 18.8984C168.648 18.6484 168.184 18.5234 167.613 18.5234C167.152 18.5234 166.75 18.625 166.406 18.8281C166.07 19.0234 165.789 19.3047 165.562 19.6719C165.344 20.0312 165.18 20.4609 165.07 20.9609C164.961 21.4609 164.906 22.0156 164.906 22.625V23.0938C164.906 23.625 164.977 24.1172 165.117 24.5703C165.266 25.0234 165.48 25.418 165.762 25.7539C166.051 26.082 166.395 26.3398 166.793 26.5273C167.199 26.707 167.66 26.7969 168.176 26.7969C168.824 26.7969 169.41 26.6719 169.934 26.4219C170.465 26.1641 170.926 25.7852 171.316 25.2852L172.875 26.9023C172.609 27.293 172.25 27.668 171.797 28.0273C171.352 28.3867 170.812 28.6797 170.18 28.9062C169.547 29.125 168.816 29.2344 167.988 29.2344ZM178.758 27.5938L182.156 16.3203H185.473L180.387 30.9219C180.27 31.2344 180.117 31.5742 179.93 31.9414C179.75 32.3086 179.508 32.6562 179.203 32.9844C178.898 33.3203 178.516 33.5938 178.055 33.8047C177.602 34.0156 177.051 34.1211 176.402 34.1211C176.121 34.1211 175.871 34.1016 175.652 34.0625C175.434 34.0234 175.203 33.9727 174.961 33.9102V31.5898C175.039 31.5977 175.129 31.6016 175.23 31.6016C175.34 31.6094 175.434 31.6133 175.512 31.6133C175.965 31.6133 176.34 31.5586 176.637 31.4492C176.934 31.3477 177.172 31.1797 177.352 30.9453C177.539 30.7188 177.695 30.4219 177.82 30.0547L178.758 27.5938ZM177.082 16.3203L179.953 25.6602L180.457 28.9297L178.324 29.3164L173.742 16.3203H177.082Z"/></g><g filter="url(#filter1_d_20_909)"><path fill="#E1AE2A" d="M34 40V37.1428C34 36.7676 33.9354 36.3961 33.8097 36.0494C33.6841 35.7029 33.5 35.3879 33.2679 35.1224C33.0356 34.8571 32.76 34.6467 32.4568 34.5031C32.1534 34.3596 31.8283 34.2857 31.5 34.2857H21.4993C18.1841 34.2857 15.0047 32.7806 12.6604 30.1015C10.3162 27.4224 8.99918 23.7889 8.99913 20C8.99913 18.124 9.32246 16.2663 9.95066 14.5331C10.5789 12.7998 11.4996 11.225 12.6604 9.89843C13.8211 8.57189 15.1991 7.51963 16.7157 6.80172C18.2323 6.0838 19.8578 5.71433 21.4993 5.71435H31.4993C31.8276 5.71445 32.1529 5.64064 32.4562 5.49711C32.7596 5.35357 33.0354 5.14313 33.2675 4.87781C33.4998 4.61247 33.6839 4.29746 33.8097 3.95076C33.9354 3.60406 34 3.23246 34 2.85717V0H21.4999C19.2017 -1.50743e-10 16.9261 0.517317 14.8029 1.52241C12.6797 2.52751 10.7505 4.00071 9.12554 5.85787C7.50051 7.71505 6.21148 9.91984 5.33204 12.3464C4.45261 14.7729 3.99998 17.3736 4 20C4 25.3042 5.84372 30.3914 9.12557 34.1421C12.4074 37.8928 16.8586 40 21.4999 40H34Z"/><path fill="#1864AB" d="M13.999 20C13.999 22.2733 14.7892 24.4533 16.1957 26.0606C17.6021 27.6681 19.5097 28.5711 21.4988 28.5711H33.9999C35.326 28.5711 36.5976 29.1732 37.5352 30.2448C38.4729 31.3164 38.9997 32.7699 38.9997 34.2854V39.9998H43.9998V34.2857C43.9998 31.2547 42.9463 28.3478 41.071 26.2044C39.1955 24.0612 36.652 22.8572 33.9999 22.8572H21.4991C20.8361 22.8572 20.2002 22.5561 19.7313 22.0204C19.2625 21.4845 18.9991 20.7578 18.9991 20C18.9991 19.2422 19.2625 18.5155 19.7313 17.9797C20.2002 17.4438 20.8361 17.1428 21.4991 17.1428H33.9999C36.652 17.1428 39.1955 15.9388 41.071 13.7955C42.9463 11.6523 43.9998 8.74536 43.9998 5.71435V0H38.999V5.71435C38.999 7.22967 38.4723 8.68297 37.5349 9.75455C36.5974 10.8261 35.3258 11.4282 33.9999 11.4285H21.4991C20.5142 11.4284 19.5389 11.6501 18.6289 12.0808C17.7189 12.5116 16.8921 13.143 16.1957 13.9389C15.4992 14.7348 14.9467 15.6798 14.5698 16.7198C14.1929 17.7597 13.999 18.8744 13.999 20Z"/></g><defs><filter id="filter0_d_20_909" width="140.844" height="31.121" x="48.629" y="11" color-interpolation-filters="sRGB" filterUnits="userSpaceOnUse"><feFlood flood-opacity="0" result="BackgroundImageFix"/><feColorMatrix in="SourceAlpha" result="hardAlpha" type="matrix" values="0 0 0 0 0 0 0 0 0 0 0 0 0 0 0 0 0 0 127 0"/><feOffset dy="4"/><feGaussianBlur stdDeviation="2"/><feComposite in2="hardAlpha" operator="out"/><feColorMatrix type="matrix" values="0 0 0 0 0 0 0 0 0 0 0 0 0 0 0 0 0 0 0.25 0"/><feBlend in2="BackgroundImageFix" mode="normal" result="effect1_dropShadow_20_909"/><feBlend in="SourceGraphic" in2="effect1_dropShadow_20_909" mode="normal" result="shape"/></filter><filter id="filter1_d_20_909" width="48" height="48" x="0" y="0" color-interpolation-filters="sRGB" filterUnits="userSpaceOnUse"><feFlood flood-opacity="0" result="BackgroundImageFix"/><feColorMatrix in="SourceAlpha" result="hardAlpha" type="matrix" values="0 0 0 0 0 0 0 0 0 0 0 0 0 0 0 0 0 0 127 0"/><feOffset dy="4"/><feGaussianBlur stdDeviation="2"/><feComposite in2="hardAlpha" operator="out"/><feColorMatrix type="matrix" values="0 0 0 0 0 0 0 0 0 0 0 0 0 0 0 0 0 0 0.25 0"/><feBlend in2="BackgroundImageFix" mode="normal" result="effect1_dropShadow_20_909"/><feBlend in="SourceGraphic" in2="effect1_dropShadow_20_909" mode="normal" result="shape"/></filter></defs></svg>