<svg xmlns="http://www.w3.org/2000/svg" width="783" height="857" fill="none" viewBox="0 0 783 857"><path fill="#D0EBFF" fill-rule="evenodd" d="M569.102 -127.039C675.5 -141.985 771.428 -68.3762 855.482 -12.5724C931.645 37.9933 991.323 103.124 1028.22 177.773C1062.34 246.802 1057.07 321.704 1057.54 396.238C1058.01 471.136 1074.53 550.278 1030.98 616.017C987.158 682.172 897.481 714.377 820.149 754.612C739.932 796.347 663.662 850.084 569.102 856.325C472.045 862.731 382.52 822.26 293.713 789.358C196.612 753.382 76.2268 732.047 25.4768 654.915C-25.2835 577.767 11.5704 481.838 35.0553 396.238C55.0835 323.238 97.2758 257.628 151.026 197.302C200.588 141.677 273.065 107.983 334.037 60.6809C414.858 -2.02007 459.685 -111.667 569.102 -127.039Z" clip-rule="evenodd"/></svg>